<?xml version="1.0" encoding="UTF-8"?>
<!DOCTYPE svg PUBLIC "-//W3C//DTD SVG 1.1//EN" "http://www.w3.org/Graphics/SVG/1.1/DTD/svg11.dtd">
<!-- Creator: CorelDRAW (Versão OEM) -->
<svg xmlns="http://www.w3.org/2000/svg" xml:space="preserve" width="70.225mm" height="41.5786mm" version="1.1" style="shape-rendering:geometricPrecision; text-rendering:geometricPrecision; image-rendering:optimizeQuality; fill-rule:evenodd; clip-rule:evenodd"
viewBox="0 0 6495.86 3846.05"
 xmlns:xlink="http://www.w3.org/1999/xlink"
 xmlns:xodm="http://www.corel.com/coreldraw/odm/2003">
 <defs>
  <style type="text/css">
   <![CDATA[
    .fil0 {fill:#215CA8}
   ]]>
  </style>
 </defs>
 <g id="Camada_x0020_1">
  <metadata id="CorelCorpID_0Corel-Layer"/>
  <path class="fil0" d="M4715.29 2459.51c0,-310.95 514.19,-234.13 819.31,-234.05 -145.39,217.23 -479.6,403.6 -790.08,497.46 -5.36,-123.2 -29.23,-80.17 -29.23,-263.4zm-1199.59 965.56c-59.3,-200.5 -42.3,-478.84 91.93,-610.05 173.65,-169.76 447.21,-89.61 466.8,-297.27 30.9,-327.65 -290.59,-239.6 -467.5,-172.07 -64.24,24.5 -167.02,66.8 -239.8,140.8 -85.7,87.08 -82.94,136.53 -177.45,176.32 -189.59,79.83 -786.55,-420.44 -896.82,-531.99 -125.55,-127 -543.98,-733.92 -547.4,-914.86 186.61,-40.99 2993.42,-14.59 3438.02,-14.59 485.23,0 913.51,-93.72 884.41,261.4 -60.2,733.78 -1314.04,89.1 -1674.47,615.31 -203.55,297.13 -43.03,635.21 -161.42,978.55 -108.21,313.75 -418.74,456.51 -716.29,368.46zm-1111.74 -2984.44l72.4 19.97 -14 58.06c-111.87,253.55 -333.87,361.89 -702.29,273.15 32.25,-120.54 115.42,-216.99 215.61,-282.48 121.95,-79.76 256.28,-68.74 428.28,-68.7zm-1170.42 380.42c-497.81,0 -583.82,-34.73 -790.07,-351.15 400.56,-106.72 715.35,30.17 790.07,351.15zm1667.61 -0.04l-106.13 -9.12 47.72 -73.75c79.65,-295.96 393.68,-738.27 -380.38,-738.13 -572.76,0.06 -745.25,244.64 -994.83,411.38 -122.44,-91.06 -157.72,-162.9 -311.58,-244.26 -109.41,-57.85 -284.79,-112.14 -426.31,-130.01 -1224.15,-154.61 -609.85,811.05 -285.11,1019.23 379.76,243.42 562.92,82 862.05,174.21 160.15,335.25 181.37,523.45 460.42,899.13 571.63,769.58 1113.01,817.16 1260.86,993.23 162.9,193.97 -31.39,409.72 276.87,630.21 183.54,131.29 703.19,163.39 1038.16,-173.97 107.45,-108.2 101.22,-105.92 193.73,-245.91 256.12,-387.61 840.88,-198.33 1567.8,-1124.46 248.16,-316.18 625.85,-847.02 195.94,-1189.7 -339.63,-270.73 -1083.74,-198.09 -1614.31,-198.09 -594.99,0 -1189.97,0 -1784.93,0z"/>
 </g>
</svg>
